<mxfile host="Electron" agent="Mozilla/5.0 (Macintosh; Intel Mac OS X 10_15_7) AppleWebKit/537.36 (KHTML, like Gecko) draw.io/24.7.5 Chrome/126.0.6478.183 Electron/31.3.0 Safari/537.36" version="24.7.5">
  <diagram name="Страница — 1" id="rSyLuiA-vbNCvcH22BYy">
    <mxGraphModel dx="1861" dy="2383" grid="1" gridSize="10" guides="1" tooltips="1" connect="1" arrows="1" fold="1" page="1" pageScale="1" pageWidth="827" pageHeight="1169" math="0" shadow="0">
      <root>
        <mxCell id="0" />
        <mxCell id="1" parent="0" />
        <mxCell id="pM0QuAYTvSxcYgCxgLF7-35" style="edgeStyle=orthogonalEdgeStyle;rounded=0;orthogonalLoop=1;jettySize=auto;html=1;exitX=0.25;exitY=1;exitDx=0;exitDy=0;entryX=1;entryY=0.5;entryDx=0;entryDy=0;" edge="1" parent="1" source="pM0QuAYTvSxcYgCxgLF7-22" target="pM0QuAYTvSxcYgCxgLF7-19">
          <mxGeometry relative="1" as="geometry" />
        </mxCell>
        <mxCell id="pM0QuAYTvSxcYgCxgLF7-36" value="Данные по ставке" style="edgeLabel;html=1;align=center;verticalAlign=middle;resizable=0;points=[];" vertex="1" connectable="0" parent="pM0QuAYTvSxcYgCxgLF7-35">
          <mxGeometry x="0.5716" y="2" relative="1" as="geometry">
            <mxPoint as="offset" />
          </mxGeometry>
        </mxCell>
        <mxCell id="pM0QuAYTvSxcYgCxgLF7-37" style="edgeStyle=orthogonalEdgeStyle;rounded=0;orthogonalLoop=1;jettySize=auto;html=1;exitX=0.25;exitY=1;exitDx=0;exitDy=0;entryX=1;entryY=0.5;entryDx=0;entryDy=0;" edge="1" parent="1" source="pM0QuAYTvSxcYgCxgLF7-22" target="pM0QuAYTvSxcYgCxgLF7-21">
          <mxGeometry relative="1" as="geometry" />
        </mxCell>
        <mxCell id="pM0QuAYTvSxcYgCxgLF7-38" value="Данные по ставке" style="edgeLabel;html=1;align=center;verticalAlign=middle;resizable=0;points=[];" vertex="1" connectable="0" parent="pM0QuAYTvSxcYgCxgLF7-37">
          <mxGeometry x="0.2939" y="2" relative="1" as="geometry">
            <mxPoint as="offset" />
          </mxGeometry>
        </mxCell>
        <mxCell id="pM0QuAYTvSxcYgCxgLF7-22" value="Автоматизированная&lt;div&gt;Банковская&lt;/div&gt;&lt;div&gt;Система&lt;/div&gt;" style="rounded=1;whiteSpace=wrap;html=1;" vertex="1" parent="1">
          <mxGeometry x="-130" y="-450" width="520" height="190" as="geometry" />
        </mxCell>
        <mxCell id="pM0QuAYTvSxcYgCxgLF7-41" style="edgeStyle=orthogonalEdgeStyle;rounded=0;orthogonalLoop=1;jettySize=auto;html=1;exitX=0;exitY=0.5;exitDx=0;exitDy=0;" edge="1" parent="1" source="pM0QuAYTvSxcYgCxgLF7-18" target="pM0QuAYTvSxcYgCxgLF7-17">
          <mxGeometry relative="1" as="geometry" />
        </mxCell>
        <mxCell id="pM0QuAYTvSxcYgCxgLF7-42" value="Отправка&lt;div&gt;СМС&lt;/div&gt;" style="edgeLabel;html=1;align=center;verticalAlign=middle;resizable=0;points=[];" vertex="1" connectable="0" parent="pM0QuAYTvSxcYgCxgLF7-41">
          <mxGeometry x="-0.0118" y="-2" relative="1" as="geometry">
            <mxPoint as="offset" />
          </mxGeometry>
        </mxCell>
        <mxCell id="pM0QuAYTvSxcYgCxgLF7-18" value="CMS шлюз" style="rounded=1;whiteSpace=wrap;html=1;" vertex="1" parent="1">
          <mxGeometry x="-200" y="130" width="120" height="140" as="geometry" />
        </mxCell>
        <mxCell id="pM0QuAYTvSxcYgCxgLF7-19" value="Система партнерского&lt;div&gt;колл-центра&lt;/div&gt;" style="rounded=1;whiteSpace=wrap;html=1;" vertex="1" parent="1">
          <mxGeometry x="-388.5" y="-80" width="120" height="60" as="geometry" />
        </mxCell>
        <mxCell id="pM0QuAYTvSxcYgCxgLF7-33" style="edgeStyle=orthogonalEdgeStyle;rounded=0;orthogonalLoop=1;jettySize=auto;html=1;exitX=0.5;exitY=1;exitDx=0;exitDy=0;" edge="1" parent="1" source="pM0QuAYTvSxcYgCxgLF7-21" target="pM0QuAYTvSxcYgCxgLF7-19">
          <mxGeometry relative="1" as="geometry" />
        </mxCell>
        <mxCell id="pM0QuAYTvSxcYgCxgLF7-34" value="Привлекается&lt;div&gt;по необходимости&lt;/div&gt;" style="edgeLabel;html=1;align=center;verticalAlign=middle;resizable=0;points=[];" vertex="1" connectable="0" parent="pM0QuAYTvSxcYgCxgLF7-33">
          <mxGeometry x="-0.025" y="1" relative="1" as="geometry">
            <mxPoint as="offset" />
          </mxGeometry>
        </mxCell>
        <mxCell id="pM0QuAYTvSxcYgCxgLF7-21" value="Система&lt;div&gt;колл-цента&lt;/div&gt;" style="rounded=1;whiteSpace=wrap;html=1;" vertex="1" parent="1">
          <mxGeometry x="-388.5" y="-220" width="120" height="60" as="geometry" />
        </mxCell>
        <mxCell id="pM0QuAYTvSxcYgCxgLF7-17" value="Телеком оператор" style="rounded=1;whiteSpace=wrap;html=1;" vertex="1" parent="1">
          <mxGeometry x="-405" y="175" width="120" height="50" as="geometry" />
        </mxCell>
        <mxCell id="pM0QuAYTvSxcYgCxgLF7-16" value="Интернет-&lt;span style=&quot;background-color: initial;&quot;&gt;банк&lt;/span&gt;" style="rounded=1;whiteSpace=wrap;html=1;" vertex="1" parent="1">
          <mxGeometry x="-402" y="-450" width="147" height="60" as="geometry" />
        </mxCell>
        <mxCell id="pM0QuAYTvSxcYgCxgLF7-20" value="Сайт" style="rounded=1;whiteSpace=wrap;html=1;" vertex="1" parent="1">
          <mxGeometry x="-405" y="-330" width="150" height="60" as="geometry" />
        </mxCell>
        <mxCell id="pM0QuAYTvSxcYgCxgLF7-28" style="edgeStyle=orthogonalEdgeStyle;rounded=0;orthogonalLoop=1;jettySize=auto;html=1;exitX=0.5;exitY=0.5;exitDx=0;exitDy=0;exitPerimeter=0;entryX=0;entryY=0.5;entryDx=0;entryDy=0;" edge="1" parent="1" source="pM0QuAYTvSxcYgCxgLF7-23" target="pM0QuAYTvSxcYgCxgLF7-16">
          <mxGeometry relative="1" as="geometry">
            <Array as="points">
              <mxPoint x="-510" y="-410" />
              <mxPoint x="-510" y="-420" />
            </Array>
          </mxGeometry>
        </mxCell>
        <mxCell id="pM0QuAYTvSxcYgCxgLF7-29" style="edgeStyle=orthogonalEdgeStyle;rounded=0;orthogonalLoop=1;jettySize=auto;html=1;exitX=0.5;exitY=0.5;exitDx=0;exitDy=0;exitPerimeter=0;entryX=0;entryY=0.5;entryDx=0;entryDy=0;" edge="1" parent="1" source="pM0QuAYTvSxcYgCxgLF7-23" target="pM0QuAYTvSxcYgCxgLF7-20">
          <mxGeometry relative="1" as="geometry">
            <Array as="points">
              <mxPoint x="-510" y="-410" />
              <mxPoint x="-510" y="-300" />
            </Array>
          </mxGeometry>
        </mxCell>
        <mxCell id="pM0QuAYTvSxcYgCxgLF7-30" style="edgeStyle=orthogonalEdgeStyle;rounded=0;orthogonalLoop=1;jettySize=auto;html=1;exitX=0.5;exitY=0.5;exitDx=0;exitDy=0;exitPerimeter=0;entryX=0;entryY=0.5;entryDx=0;entryDy=0;" edge="1" parent="1" source="pM0QuAYTvSxcYgCxgLF7-23" target="pM0QuAYTvSxcYgCxgLF7-21">
          <mxGeometry relative="1" as="geometry">
            <Array as="points">
              <mxPoint x="-510" y="-410" />
              <mxPoint x="-510" y="-190" />
            </Array>
          </mxGeometry>
        </mxCell>
        <mxCell id="pM0QuAYTvSxcYgCxgLF7-23" value="Клиент" style="shape=umlActor;verticalLabelPosition=bottom;verticalAlign=top;html=1;outlineConnect=0;" vertex="1" parent="1">
          <mxGeometry x="-670" y="-440" width="30" height="60" as="geometry" />
        </mxCell>
        <mxCell id="pM0QuAYTvSxcYgCxgLF7-39" style="edgeStyle=orthogonalEdgeStyle;rounded=0;orthogonalLoop=1;jettySize=auto;html=1;exitX=0.5;exitY=0.5;exitDx=0;exitDy=0;exitPerimeter=0;entryX=0;entryY=0.75;entryDx=0;entryDy=0;" edge="1" parent="1" source="pM0QuAYTvSxcYgCxgLF7-25" target="pM0QuAYTvSxcYgCxgLF7-21">
          <mxGeometry relative="1" as="geometry" />
        </mxCell>
        <mxCell id="pM0QuAYTvSxcYgCxgLF7-40" value="Взаимодейсвие&lt;div&gt;с клиентом&lt;/div&gt;" style="edgeLabel;html=1;align=center;verticalAlign=middle;resizable=0;points=[];" vertex="1" connectable="0" parent="pM0QuAYTvSxcYgCxgLF7-39">
          <mxGeometry x="-0.3621" y="-3" relative="1" as="geometry">
            <mxPoint as="offset" />
          </mxGeometry>
        </mxCell>
        <mxCell id="pM0QuAYTvSxcYgCxgLF7-25" value="Оператор&lt;div&gt;колл центра&lt;/div&gt;" style="shape=umlActor;verticalLabelPosition=bottom;verticalAlign=top;html=1;outlineConnect=0;" vertex="1" parent="1">
          <mxGeometry x="-670" y="-205" width="30" height="60" as="geometry" />
        </mxCell>
        <mxCell id="pM0QuAYTvSxcYgCxgLF7-46" style="edgeStyle=orthogonalEdgeStyle;rounded=0;orthogonalLoop=1;jettySize=auto;html=1;exitX=0.5;exitY=0.5;exitDx=0;exitDy=0;exitPerimeter=0;entryX=0.25;entryY=0;entryDx=0;entryDy=0;" edge="1" parent="1" source="pM0QuAYTvSxcYgCxgLF7-26" target="pM0QuAYTvSxcYgCxgLF7-22">
          <mxGeometry relative="1" as="geometry" />
        </mxCell>
        <mxCell id="pM0QuAYTvSxcYgCxgLF7-47" value="Рассчет&lt;div&gt;ставки&lt;/div&gt;&lt;div&gt;для клиента&lt;/div&gt;" style="edgeLabel;html=1;align=center;verticalAlign=middle;resizable=0;points=[];" vertex="1" connectable="0" parent="pM0QuAYTvSxcYgCxgLF7-46">
          <mxGeometry x="-0.3558" y="-1" relative="1" as="geometry">
            <mxPoint as="offset" />
          </mxGeometry>
        </mxCell>
        <mxCell id="pM0QuAYTvSxcYgCxgLF7-50" style="edgeStyle=orthogonalEdgeStyle;rounded=0;orthogonalLoop=1;jettySize=auto;html=1;exitX=0.5;exitY=0.5;exitDx=0;exitDy=0;exitPerimeter=0;entryX=0.5;entryY=0;entryDx=0;entryDy=0;" edge="1" parent="1" source="pM0QuAYTvSxcYgCxgLF7-26" target="pM0QuAYTvSxcYgCxgLF7-18">
          <mxGeometry relative="1" as="geometry" />
        </mxCell>
        <mxCell id="pM0QuAYTvSxcYgCxgLF7-51" value="Информирование&lt;div&gt;клиента&lt;/div&gt;" style="edgeLabel;html=1;align=center;verticalAlign=middle;resizable=0;points=[];" vertex="1" connectable="0" parent="pM0QuAYTvSxcYgCxgLF7-50">
          <mxGeometry x="-0.5709" relative="1" as="geometry">
            <mxPoint as="offset" />
          </mxGeometry>
        </mxCell>
        <mxCell id="pM0QuAYTvSxcYgCxgLF7-26" value="Сотрудник&lt;div&gt;бэк офиса&lt;/div&gt;" style="shape=umlActor;verticalLabelPosition=bottom;verticalAlign=top;html=1;outlineConnect=0;" vertex="1" parent="1">
          <mxGeometry x="-240" y="-640" width="30" height="60" as="geometry" />
        </mxCell>
        <mxCell id="pM0QuAYTvSxcYgCxgLF7-48" style="edgeStyle=orthogonalEdgeStyle;rounded=0;orthogonalLoop=1;jettySize=auto;html=1;exitX=0.5;exitY=0.5;exitDx=0;exitDy=0;exitPerimeter=0;" edge="1" parent="1" source="pM0QuAYTvSxcYgCxgLF7-27" target="pM0QuAYTvSxcYgCxgLF7-22">
          <mxGeometry relative="1" as="geometry">
            <Array as="points">
              <mxPoint x="130" y="-610" />
            </Array>
          </mxGeometry>
        </mxCell>
        <mxCell id="pM0QuAYTvSxcYgCxgLF7-49" value="Рассчет&lt;div&gt;ставки&lt;/div&gt;&lt;div&gt;для клиента&lt;/div&gt;" style="edgeLabel;html=1;align=center;verticalAlign=middle;resizable=0;points=[];" vertex="1" connectable="0" parent="pM0QuAYTvSxcYgCxgLF7-48">
          <mxGeometry x="-0.4531" y="-2" relative="1" as="geometry">
            <mxPoint as="offset" />
          </mxGeometry>
        </mxCell>
        <mxCell id="pM0QuAYTvSxcYgCxgLF7-27" value="Сотрудник&lt;div&gt;отдела&lt;/div&gt;&lt;div&gt;кредитования&lt;/div&gt;" style="shape=umlActor;verticalLabelPosition=bottom;verticalAlign=top;html=1;outlineConnect=0;" vertex="1" parent="1">
          <mxGeometry x="230" y="-640" width="30" height="60" as="geometry" />
        </mxCell>
        <mxCell id="pM0QuAYTvSxcYgCxgLF7-31" value="Запрашивает&lt;div&gt;предложения&lt;/div&gt;&lt;div&gt;по продуктам&lt;/div&gt;" style="text;html=1;align=center;verticalAlign=middle;whiteSpace=wrap;rounded=0;" vertex="1" parent="1">
          <mxGeometry x="-610" y="-450" width="60" height="30" as="geometry" />
        </mxCell>
        <mxCell id="pM0QuAYTvSxcYgCxgLF7-43" style="edgeStyle=orthogonalEdgeStyle;rounded=0;orthogonalLoop=1;jettySize=auto;html=1;exitX=0;exitY=0.5;exitDx=0;exitDy=0;entryX=0.5;entryY=0.5;entryDx=0;entryDy=0;entryPerimeter=0;" edge="1" parent="1" source="pM0QuAYTvSxcYgCxgLF7-17" target="pM0QuAYTvSxcYgCxgLF7-23">
          <mxGeometry relative="1" as="geometry">
            <Array as="points">
              <mxPoint x="-800" y="200" />
              <mxPoint x="-800" y="-410" />
            </Array>
          </mxGeometry>
        </mxCell>
        <mxCell id="pM0QuAYTvSxcYgCxgLF7-44" value="СМС&lt;div&gt;Оповещение&lt;/div&gt;" style="edgeLabel;html=1;align=center;verticalAlign=middle;resizable=0;points=[];" vertex="1" connectable="0" parent="pM0QuAYTvSxcYgCxgLF7-43">
          <mxGeometry x="-0.633" y="1" relative="1" as="geometry">
            <mxPoint as="offset" />
          </mxGeometry>
        </mxCell>
      </root>
    </mxGraphModel>
  </diagram>
</mxfile>
